<svg width="25" height="23" viewBox="0 0 25 23" fill="none" xmlns="http://www.w3.org/2000/svg">
<path fill-rule="evenodd" clip-rule="evenodd" d="M13.2435 6.8275V9.30229C13.7616 8.51266 14.4759 7.87115 15.3164 7.44064C16.157 7.01013 17.095 6.80538 18.0385 6.84646C23.077 6.84646 24.1664 9.99646 24.1664 14.0944V22.4375H19.4998V15.0408C19.4998 13.2763 19.1439 11.0071 16.3964 11.0071C13.732 11.0071 13.277 12.9277 13.277 14.9096V22.4375H8.62496V6.8275H13.2435ZM5.49975 2.90458C5.49918 3.36688 5.36214 3.81872 5.10583 4.20345C4.84951 4.58819 4.48532 4.88869 4.05892 5.06729C3.63269 5.24445 3.16339 5.29079 2.71074 5.20042C2.25809 5.11005 1.84256 4.88704 1.51704 4.55979C1.19091 4.23234 0.968875 3.81576 0.878864 3.36245C0.788852 2.90914 0.834881 2.43934 1.01116 2.01212C1.18744 1.5849 1.4861 1.21934 1.86959 0.961411C2.25308 0.703479 2.70426 0.564691 3.16642 0.5625C3.47352 0.56269 3.77756 0.623464 4.06114 0.74134C4.34472 0.859216 4.60226 1.03188 4.819 1.24944C5.03575 1.467 5.20745 1.72518 5.32426 2.00919C5.44107 2.29321 5.50071 2.59748 5.49975 2.90458Z" fill="white"/>
<path d="M5.50016 6.84647H0.833496V22.4375H5.50016V6.84647Z" fill="white"/>
</svg>
